<?xml version="1.0" encoding="utf-8"?>
<!-- Generator: Adobe Illustrator 21.1.0, SVG Export Plug-In . SVG Version: 6.00 Build 0)  -->
<svg version="1.1" id="레이어_1" xmlns="http://www.w3.org/2000/svg" xmlns:xlink="http://www.w3.org/1999/xlink" x="0px"
	 y="0px" viewBox="0 0 10 10" style="enable-background:new 0 0 10 10;" xml:space="preserve">
<style type="text/css">
	.st0{fill:none;stroke:#000000;stroke-width:0.25;stroke-miterlimit:10;}
</style>
<path class="st0" d="M6.2,7.3L2.7,3.8L6.2,7.3z"/>
<path class="st0" d="M2.8,3.8C2.6,4.1,2.1,4.3,1.7,4.3c-0.6,0-1.1-0.5-1.1-1.1s0.5-1.1,1.1-1.1c0.3,0,0.7,0.1,0.9,0.3
	C2.4,2.1,2.3,1.9,2.3,1.6c0-0.6,0.5-1.1,1.1-1.1S4.6,1,4.6,1.6c0,0.5-0.2,0.8-0.6,1.1L3.9,2.6l3.5,3.5L7.3,6C7.7,5.7,8,5.5,8.5,5.5
	c0.6,0,1.1,0.5,1.1,1.1S9.1,7.8,8.5,7.8c-0.3,0-0.6-0.1-0.8-0.3L7.6,7.4C7.8,7.7,8,8,8,8.3c0,0.6-0.5,1.1-1.1,1.1S5.7,8.9,5.7,8.3
	c0-0.4,0.2-0.9,0.5-1.1"/>
</svg>
