<?xml version="1.0" encoding="utf-8"?>
<!-- Generator: Adobe Illustrator 21.1.0, SVG Export Plug-In . SVG Version: 6.00 Build 0)  -->
<svg version="1.1" id="레이어_1" xmlns="http://www.w3.org/2000/svg" xmlns:xlink="http://www.w3.org/1999/xlink" x="0px"
	 y="0px" viewBox="0 0 164.4 85.8" style="enable-background:new 0 0 164.4 85.8;" xml:space="preserve" width="current">
<style type="text/css">
	.st0{fill:#FF6E2E;}
</style>
<path class="st0" d="M49.4,9.1c-1.3-2.2-3-4-5.2-5.4s-4.6-2.3-7.3-2.9C34.1,0.3,31.4,0,28.8,0c-2.7,0-5.4,0.3-8.1,0.8
	s-5.1,1.4-7.3,2.8S9.3,6.8,7.8,9.2c-1.5,2.3-2.5,5.3-3,9c-1.1,8.7-2,17-2.6,24.8S0.9,58.7,0.1,66.6c-0.3,3.3,0.2,6,1.3,8.2
	s2.8,4,4.8,5.3c2.1,1.3,4.5,2.3,7.3,2.9l6.7-45.5l-3.3-3.3c-1.2-1.6-2.4-4-1.9-7.5l0.9-7.1c0.3-2.3,1.5-4.3,3.3-5.6
	c1.5-1,3.4-1.5,5.2-1.2l0.9,0.1l0.9,0.1c1.8,0.2,3.5,1.2,4.7,2.6c1.5,1.7,2.2,4,1.9,6.3l-0.9,7.7c-0.6,2.8-2.1,5-3.7,6.2L24.4,38
	l-4.8,45.7c1.1,0.1,2.3,0.1,3.5,0.1c1.3,0,2.5-0.1,3.8-0.2l8.5-67.9l1.5,0.2l-7.7,67.4c0.2,0,0.4-0.1,0.6-0.1l8-67.5l1.5,0.2
	l-7.3,67c2-0.5,3.8-1.2,5.5-2.2c2.1-1.2,3.9-2.8,5.4-4.9s2.5-4.8,3-8.1c1.2-7.9,2.2-15.9,2.9-24.1s1.4-17,2-26.3
	C51.1,14,50.6,11.3,49.4,9.1z"/>
<rect x="60.6" y="0.5" class="st0" width="16.2" height="83.6"/>
<g>
	<path class="st0" d="M114.9,70.8V54H89.6V0.7h68.9V54h-25.3v17.1l0,0c4.8,0,21-3.3,31.3-6.6l0,0v13.8l-1.5,0.6
		c-12.2,4.7-25.2,7-38.2,7l0,0c-10.7,0-21.3-1.6-31.5-4.7l-9.4-2.9V64.4l0,0C94.3,68.1,110.1,70.8,114.9,70.8L114.9,70.8z
		 M105.8,40.2h36.5V14.5h-36.5V40.2z"/>
</g>
<path class="st0" d="M104.8,68.5"/>
<g id="레이어_2">
</g>
</svg>
